<svg width="16" height="16" viewBox="0 0 16 16" fill="none" xmlns="http://www.w3.org/2000/svg">
    <rect width="16" height="16" fill="white"/>
    <path d="M13.5 7L13.624 6.78294C13.7064 6.82999 13.755 6.91959 13.7496 7.01427C13.7442 7.10896 13.6857 7.19243 13.5985 7.22979L13.5 7ZM9.87597 5.21706C9.75609 5.14856 9.71444 4.99584 9.78294 4.87597C9.85144 4.75609 10.0042 4.71444 10.124 4.78294L9.87597 5.21706ZM10.0985 8.72979C9.97157 8.78418 9.8246 8.72539 9.77021 8.59848C9.71582 8.47157 9.77461 8.3246 9.90152 8.27021L10.0985 8.72979ZM14 11.25H5V10.75H14V11.25ZM5 6.75H13.5V7.25H5V6.75ZM13.376 7.21706L9.87597 5.21706L10.124 4.78294L13.624 6.78294L13.376 7.21706ZM13.5985 7.22979L10.0985 8.72979L9.90152 8.27021L13.4015 6.77021L13.5985 7.22979ZM2.75 9C2.75 7.75736 3.75736 6.75 5 6.75V7.25C4.0335 7.25 3.25 8.0335 3.25 9H2.75ZM5 11.25C3.75736 11.25 2.75 10.2426 2.75 9H3.25C3.25 9.9665 4.0335 10.75 5 10.75V11.25Z" fill="black"/>
    </svg>
    