<svg width="16" height="16" viewBox="0 0 16 16" fill="none" xmlns="http://www.w3.org/2000/svg">
    <rect width="16" height="16" fill="white" />
    <path
        d="M3.5 7L3.37597 6.78294C3.29362 6.82999 3.24499 6.91959 3.25041 7.01427C3.25582 7.10896 3.31435 7.19243 3.40152 7.22979L3.5 7ZM7.12403 5.21706C7.24391 5.14856 7.28556 4.99584 7.21706 4.87597C7.14856 4.75609 6.99584 4.71444 6.87597 4.78294L7.12403 5.21706ZM6.90152 8.72979C7.02843 8.78418 7.1754 8.72539 7.22979 8.59848C7.28418 8.47157 7.22539 8.3246 7.09848 8.27021L6.90152 8.72979ZM3 11.25H12V10.75H3V11.25ZM12 6.75H3.5V7.25H12V6.75ZM3.62403 7.21706L7.12403 5.21706L6.87597 4.78294L3.37597 6.78294L3.62403 7.21706ZM3.40152 7.22979L6.90152 8.72979L7.09848 8.27021L3.59848 6.77021L3.40152 7.22979ZM14.25 9C14.25 7.75736 13.2426 6.75 12 6.75V7.25C12.9665 7.25 13.75 8.0335 13.75 9H14.25ZM12 11.25C13.2426 11.25 14.25 10.2426 14.25 9H13.75C13.75 9.9665 12.9665 10.75 12 10.75V11.25Z"
        fill="black" />
</svg>
    